<svg width="106" height="106" viewBox="0 0 106 106" fill="none" xmlns="http://www.w3.org/2000/svg">
<g filter="url(#filter0_dd_154_134)">
<circle cx="53" cy="52" r="50" fill="white"/>
</g>
<g clip-path="url(#clip0_154_134)">
<path d="M43.625 54.8125H45.5V56.6875H43.625V54.8125ZM43.625 64.1875H45.5V62.3125H43.625V64.1875ZM43.625 51.0625V52.9375H45.5V51.0625H43.625ZM43.625 60.4375H45.5V58.5625H43.625V60.4375ZM79.4994 43.1931C79.2659 43.9178 78.9781 44.6181 78.6378 45.2828L79.8678 47.6716L74.9234 52.6159L72.5337 51.3859C71.8681 51.7262 71.1678 52.015 70.4441 52.2475L69.6209 54.8125H62.6281L62.2325 53.5769C61.4056 54.9297 60.4325 56.2056 59.2822 57.3559L58.5781 58.0609C56.4116 60.2266 55.1403 63.0419 54.92 66.0672C56.45 66.0925 57.6875 67.3394 57.6875 68.875V70.75C57.6875 72.3006 56.4256 73.5625 54.875 73.5625H54.8197C54.3509 77.7747 50.7725 81.0625 46.4375 81.0625H42.6875C38.3525 81.0625 34.7731 77.7747 34.3053 73.5625H34.25C32.6994 73.5625 31.4375 72.3006 31.4375 70.75V68.875C31.4375 67.3394 32.675 66.0925 34.205 66.0672C33.9856 63.0419 32.7134 60.2256 30.5478 58.0609L29.8428 57.3559C26.0347 53.5469 23.9375 48.4844 23.9375 43.0994C23.9375 31.9825 32.9816 22.9375 44.0994 22.9375H45.0256C49.1384 22.9375 52.9644 24.1816 56.1566 26.3041L57.3275 25.1331L59.7172 26.3631C60.3828 26.0228 61.0831 25.7341 61.8069 25.5016L62.6291 22.9375H69.6219L70.4431 25.5006C71.1669 25.7331 71.8672 26.0219 72.5328 26.3622L74.9225 25.1322L79.8669 30.0766L78.6369 32.4662C78.9772 33.1319 79.2659 33.8322 79.4984 34.5559L82.0625 35.3791V42.3719L79.4994 43.1931ZM38 36.0625V34.1875H36.125V37.9375H53V34.1875H51.125V36.0625H45.5V34.1875H43.625V36.0625H38ZM36.7044 39.8125L38.5794 43.5625H50.5456L52.4206 39.8125H36.7044ZM37.0625 45.4375C36.5459 45.4375 36.125 45.8584 36.125 46.375C36.125 46.8916 36.5459 47.3125 37.0625 47.3125H52.0625C52.5791 47.3125 53 46.8916 53 46.375C53 45.8584 52.5791 45.4375 52.0625 45.4375H51.7044H37.4206H37.0625ZM37.1609 66.0625H51.9641L50.2766 49.1875H38.8484L37.1609 66.0625ZM52.925 73.5625H36.2C36.6575 76.7369 39.3884 79.1875 42.6875 79.1875H46.4375C49.7366 79.1875 52.4675 76.7369 52.925 73.5625ZM54.875 67.9375H34.25C33.7334 67.9375 33.3125 68.3575 33.3125 68.875V70.75C33.3125 71.2675 33.7334 71.6875 34.25 71.6875H54.875C55.3916 71.6875 55.8125 71.2675 55.8125 70.75V68.875C55.8125 68.3575 55.3916 67.9375 54.875 67.9375ZM63.3125 43.0994C63.3125 33.0156 55.1094 24.8125 45.0256 24.8125H44.0994C34.0156 24.8125 25.8125 33.0156 25.8125 43.0994C25.8125 47.9838 27.7147 52.5756 31.1684 56.0303L31.8734 56.7353C33.6603 58.5222 34.9128 60.6963 35.5766 63.0653L36.965 49.1781C35.4603 49.1247 34.25 47.8928 34.25 46.375C34.25 45.0128 35.2231 43.8756 36.5112 43.6178L34.25 39.0963V32.3125H39.875V34.1875H41.75V32.3125H47.375V34.1875H49.25V32.3125H54.875V39.0963L52.6137 43.6187C53.9019 43.8756 54.875 45.0128 54.875 46.375C54.875 47.8928 53.6647 49.1247 52.16 49.1781L53.5484 63.0653C54.2122 60.6963 55.4647 58.5222 57.2516 56.7353L57.9556 56.0303C61.4103 52.5756 63.3125 47.9838 63.3125 43.0994ZM65.1875 43.0994C65.1875 43.2175 65.1725 43.3328 65.1706 43.45C65.4875 43.5175 65.8053 43.5625 66.125 43.5625C68.7097 43.5625 70.8125 41.4597 70.8125 38.875C70.8125 36.2903 68.7097 34.1875 66.125 34.1875C65.1753 34.1875 64.2641 34.4894 63.4869 35.0238C64.5744 37.4988 65.1875 40.2269 65.1875 43.0994ZM64.7703 47.185C65.2241 47.2609 65.6778 47.3125 66.125 47.3125C70.7769 47.3125 74.5625 43.5269 74.5625 38.875C74.5625 34.2231 70.7769 30.4375 66.125 30.4375C64.5247 30.4375 62.9994 30.8847 61.6606 31.7284C62.0122 32.2413 62.3384 32.7738 62.6431 33.3194C63.6809 32.665 64.8828 32.3125 66.125 32.3125C69.7438 32.3125 72.6875 35.2563 72.6875 38.875C72.6875 42.4937 69.7438 45.4375 66.125 45.4375C65.7669 45.4375 65.4097 45.4019 65.0544 45.3419C64.9859 45.9625 64.8941 46.5784 64.7703 47.185ZM80.1875 41.0041V36.7469L77.9788 36.0391L77.8419 35.5544C77.5803 34.63 77.2166 33.7478 76.7609 32.9331L76.5153 32.4944L77.5738 30.4366L74.5634 27.4262L72.5056 28.4847L72.0669 28.2391C71.2522 27.7834 70.37 27.4187 69.4456 27.1581L68.9609 27.0212L68.2541 24.8125H63.9969L63.2891 27.0212L62.8044 27.1581C61.88 27.4197 60.9978 27.7834 60.1831 28.2391L59.7444 28.4847L57.6866 27.4262L57.6847 27.4281C58.7206 28.2663 59.6741 29.2009 60.5262 30.2247C62.1959 29.1362 64.1122 28.5625 66.125 28.5625C71.8109 28.5625 76.4375 33.1891 76.4375 38.875C76.4375 44.5609 71.8109 49.1875 66.125 49.1875C65.525 49.1875 64.9194 49.1116 64.3128 49.0009C64.0784 49.7716 63.7822 50.5197 63.4569 51.2547L63.9959 52.9375H68.2531L68.9609 50.7287L69.4456 50.5919C70.37 50.3303 71.2522 49.9666 72.0669 49.5109L72.5056 49.2653L74.5634 50.3237L77.5738 47.3134L76.5144 45.2556L76.7609 44.8159C77.2166 44.0031 77.5803 43.1209 77.8419 42.1956L77.9788 41.7109L80.1875 41.0041ZM29.6225 41.7719L27.755 41.6031C27.71 42.0972 27.6875 42.6006 27.6875 43.0994C27.6875 47.0397 29.1003 50.845 31.6653 53.8141L33.0847 52.5878C30.8131 49.9591 29.5625 46.5897 29.5625 43.0994C29.5625 42.6569 29.5822 42.2106 29.6225 41.7719ZM30.3941 38.2506L28.6269 37.6234C28.3972 38.2703 28.2059 38.9406 28.0606 39.6128L29.8925 40.0112C30.0219 39.4169 30.1897 38.8244 30.3941 38.2506Z" fill="url(#paint0_linear_154_134)"/>
</g>
<defs>
<filter id="filter0_dd_154_134" x="0" y="0" width="106" height="106" filterUnits="userSpaceOnUse" color-interpolation-filters="sRGB">
<feFlood flood-opacity="0" result="BackgroundImageFix"/>
<feColorMatrix in="SourceAlpha" type="matrix" values="0 0 0 0 0 0 0 0 0 0 0 0 0 0 0 0 0 0 127 0" result="hardAlpha"/>
<feOffset dy="1"/>
<feGaussianBlur stdDeviation="1"/>
<feColorMatrix type="matrix" values="0 0 0 0 0.0627451 0 0 0 0 0.0941176 0 0 0 0 0.156863 0 0 0 0.06 0"/>
<feBlend mode="normal" in2="BackgroundImageFix" result="effect1_dropShadow_154_134"/>
<feColorMatrix in="SourceAlpha" type="matrix" values="0 0 0 0 0 0 0 0 0 0 0 0 0 0 0 0 0 0 127 0" result="hardAlpha"/>
<feOffset dy="1"/>
<feGaussianBlur stdDeviation="1.5"/>
<feColorMatrix type="matrix" values="0 0 0 0 0.0627451 0 0 0 0 0.0941176 0 0 0 0 0.156863 0 0 0 0.1 0"/>
<feBlend mode="normal" in2="effect1_dropShadow_154_134" result="effect2_dropShadow_154_134"/>
<feBlend mode="normal" in="SourceGraphic" in2="effect2_dropShadow_154_134" result="shape"/>
</filter>
<linearGradient id="paint0_linear_154_134" x1="53" y1="81.0625" x2="53" y2="22.9375" gradientUnits="userSpaceOnUse">
<stop stop-color="#9F2FFF"/>
<stop offset="1" stop-color="#0BB1D3"/>
</linearGradient>
<clipPath id="clip0_154_134">
<rect width="60" height="60" fill="white" transform="translate(23 22)"/>
</clipPath>
</defs>
</svg>
