<svg width="192" height="76" viewBox="0 0 192 76" fill="none" xmlns="http://www.w3.org/2000/svg">
<g opacity="0.5">
<path d="M89.0909 47.4151C87.7809 47.4151 86.5622 47.198 85.4346 46.7637C84.3237 46.3137 83.3454 45.6864 82.4995 44.8826C81.6705 44.0784 81.0236 43.1459 80.5596 42.0847C80.0951 41.0074 79.8629 39.8495 79.8629 38.6114C79.8629 37.3732 80.0951 36.2235 80.5596 35.1622C81.0236 34.0849 81.6705 33.1523 82.4995 32.3644C83.3288 31.5765 84.2988 30.9654 85.4097 30.5313C86.5373 30.0811 87.756 29.856 89.066 29.856C90.459 29.856 91.6947 30.073 92.7725 30.5072C93.6973 30.8742 94.5216 31.356 95.2457 31.9527C95.4642 32.133 95.4676 32.454 95.2656 32.6517L93.397 34.4806C93.1918 34.6815 92.8571 34.6744 92.6352 34.4907C92.2541 34.1753 91.8191 33.9167 91.3298 33.7151C90.6829 33.4417 89.9286 33.3051 89.066 33.3051C88.3034 33.3051 87.5989 33.4337 86.952 33.691C86.3216 33.9322 85.7747 34.2859 85.3102 34.7522C84.8628 35.2185 84.5061 35.7813 84.2407 36.4406C83.9919 37.0999 83.8675 37.8235 83.8675 38.6114C83.8675 39.4154 83.9919 40.147 84.2407 40.8063C84.5061 41.4654 84.8628 42.0284 85.3102 42.4944C85.7747 42.9609 86.3216 43.3228 86.952 43.5801C87.5989 43.8371 88.3034 43.9658 89.066 43.9658C89.9618 43.9658 90.7409 43.8291 91.4044 43.556C91.9 43.3517 92.345 43.0888 92.7389 42.7679C92.9587 42.5885 93.2871 42.5837 93.4899 42.7807L95.3788 44.612C95.5853 44.8122 95.5791 45.14 95.3539 45.3197C94.6071 45.9156 93.7715 46.397 92.8471 46.7637C91.769 47.198 90.517 47.4151 89.0909 47.4151Z" fill="black"/>
<path d="M75.2288 47.1498C74.9451 47.1498 74.715 46.9266 74.715 46.6516V30.6195C74.715 30.3444 74.9451 30.1213 75.2288 30.1213H78.1063C78.3899 30.1213 78.6201 30.3444 78.6201 30.6195V46.6516C78.6201 46.9266 78.3899 47.1498 78.1063 47.1498H75.2288Z" fill="black"/>
<path d="M96.6639 46.6516C96.6639 46.9266 96.8941 47.1498 97.1777 47.1498H100.055C100.073 47.1498 100.091 47.149 100.109 47.147C100.127 47.149 100.144 47.1498 100.163 47.1498H108.761C109.045 47.1498 109.275 46.9266 109.275 46.6516V44.3676C109.275 44.0925 109.045 43.8693 108.761 43.8693H100.569V40.0345H107.891C108.174 40.0345 108.404 39.8115 108.404 39.5363V37.373C108.404 37.0979 108.174 36.8748 107.891 36.8748H100.569V33.3775H108.637C108.92 33.3775 109.151 33.1544 109.151 32.8793V30.6195C109.151 30.3444 108.92 30.1213 108.637 30.1213H100.163C100.144 30.1213 100.127 30.1222 100.109 30.124C100.091 30.1222 100.073 30.1213 100.055 30.1213H97.1777C96.8941 30.1213 96.6639 30.3444 96.6639 30.6195V46.6516Z" fill="black"/>
<path fill-rule="evenodd" clip-rule="evenodd" d="M114.222 47.1498C114.195 47.1498 114.169 47.1478 114.143 47.1442C114.118 47.1478 114.092 47.1498 114.065 47.1498H111.237C110.953 47.1498 110.723 46.9266 110.723 46.6516V30.6195C110.723 30.3444 110.953 30.1213 111.237 30.1213H114.065C114.092 30.1213 114.118 30.1233 114.143 30.1271C114.169 30.1233 114.195 30.1213 114.222 30.1213H118.26C119.387 30.1213 120.341 30.3223 121.12 30.7243C121.917 31.1263 122.522 31.665 122.936 32.3403C123.351 33.0157 123.558 33.7634 123.558 34.5835C123.558 35.6286 123.21 36.513 122.513 37.2366C122.214 37.5483 121.852 37.8183 121.429 38.0465C122.022 38.3284 122.525 38.6855 122.936 39.1179C123.749 39.9541 124.155 40.9833 124.155 42.2054C124.155 43.1379 123.915 43.9819 123.434 44.7379C122.97 45.4774 122.289 46.0645 121.394 46.4984C120.515 46.9327 119.454 47.1498 118.21 47.1498H114.222ZM114.579 44.2071H117.837C118.6 44.2071 119.197 43.99 119.628 43.5561C120.059 43.1218 120.275 42.591 120.275 41.9641C120.275 41.5298 120.175 41.1442 119.976 40.8064C119.777 40.4686 119.495 40.2033 119.131 40.0104C118.782 39.8174 118.351 39.7209 117.837 39.7209H114.579V44.2071ZM117.514 36.8507H114.579V33.0639H117.514C118.16 33.0639 118.683 33.2247 119.081 33.5463C119.479 33.8518 119.678 34.3181 119.678 34.9452C119.678 35.5884 119.479 36.0709 119.081 36.3924C118.683 36.698 118.16 36.8507 117.514 36.8507Z" fill="black"/>
<path d="M125.414 46.6516C125.414 46.9266 125.644 47.1498 125.928 47.1498H128.806C128.824 47.1498 128.842 47.149 128.859 47.147C128.877 47.149 128.895 47.1498 128.913 47.1498H137.511C137.795 47.1498 138.025 46.9266 138.025 46.6516V44.3676C138.025 44.0925 137.795 43.8693 137.511 43.8693H129.32V40.0345H136.641C136.925 40.0345 137.155 39.8115 137.155 39.5363V37.373C137.155 37.0979 136.925 36.8748 136.641 36.8748H129.32V33.3775H137.387C137.671 33.3775 137.901 33.1544 137.901 32.8793V30.6195C137.901 30.3444 137.671 30.1213 137.387 30.1213H128.913C128.895 30.1213 128.877 30.1222 128.859 30.124C128.842 30.1222 128.824 30.1213 128.806 30.1213H125.928C125.644 30.1213 125.414 30.3444 125.414 30.6195V46.6516Z" fill="black"/>
<path fill-rule="evenodd" clip-rule="evenodd" d="M143.379 46.6516V40.131H143.892C143.896 40.2242 143.927 40.3182 143.989 40.4019L148.871 46.9435C148.968 47.073 149.123 47.1498 149.288 47.1498H152.613C153.038 47.1498 153.279 46.6769 153.021 46.3492L148.026 40.0084C148.624 39.9053 149.172 39.7371 149.672 39.5039C150.567 39.0858 151.264 38.5069 151.761 37.7673C152.259 37.0115 152.508 36.1352 152.508 35.1382C152.508 34.1573 152.259 33.2891 151.761 32.5333C151.264 31.7775 150.576 31.1906 149.697 30.7726C148.818 30.3384 147.798 30.1213 146.637 30.1213H142.972C142.954 30.1213 142.936 30.1222 142.919 30.124C142.901 30.1222 142.883 30.1213 142.865 30.1213H139.987C139.704 30.1213 139.474 30.3444 139.474 30.6195V46.6516C139.474 46.9266 139.704 47.1498 139.987 47.1498H142.865C143.149 47.1498 143.379 46.9266 143.379 46.6516ZM146.165 37.3331H143.379V33.0639H146.19C146.969 33.0639 147.566 33.2649 147.981 33.6669C148.395 34.0689 148.602 34.5754 148.602 35.1864C148.602 35.8457 148.387 36.3683 147.956 36.7542C147.541 37.1401 146.944 37.3331 146.165 37.3331Z" fill="black"/>
<path d="M158.72 46.7396C159.847 47.1899 161.049 47.4151 162.326 47.4151C164.068 47.4151 165.601 47.0613 166.928 46.3539C168.271 45.6462 169.316 44.6011 170.062 43.2182C170.825 41.8193 171.206 40.0987 171.206 38.0566V38.0001C171.206 37.7249 170.976 37.5019 170.692 37.5019H162.492C162.208 37.5019 161.978 37.7249 161.978 38.0001V40.2193C161.978 40.4915 162.203 40.7131 162.483 40.7175L167.023 40.7875C166.926 41.1417 166.795 41.4698 166.629 41.771C166.248 42.4784 165.692 43.0252 164.963 43.4113C164.25 43.7812 163.379 43.9658 162.351 43.9658C161.34 43.9658 160.444 43.741 159.665 43.2906C158.885 42.8403 158.272 42.2134 157.824 41.4091C157.377 40.6053 157.153 39.6726 157.153 38.6114C157.153 37.5501 157.377 36.6255 157.824 35.8376C158.288 35.0336 158.927 34.4145 159.739 33.9804C160.552 33.5302 161.472 33.3051 162.5 33.3051C163.462 33.3051 164.324 33.4819 165.087 33.8357C165.686 34.1134 166.223 34.5001 166.7 34.9958C166.911 35.2156 167.271 35.2396 167.49 35.0273L169.405 33.1706C169.593 32.9876 169.607 32.6934 169.423 32.5059C168.665 31.7341 167.742 31.1161 166.654 30.6519C165.427 30.1213 164.059 29.856 162.55 29.856C161.24 29.856 160.013 30.0811 158.869 30.5313C157.724 30.9654 156.721 31.5845 155.859 32.3885C155.013 33.1764 154.35 34.101 153.869 35.1622C153.388 36.2235 153.148 37.3732 153.148 38.6114C153.148 39.8495 153.38 41.0074 153.844 42.0847C154.325 43.1459 154.98 44.0784 155.809 44.8826C156.638 45.6703 157.608 46.2896 158.72 46.7396Z" fill="black"/>
<path d="M23.3354 24.0558C21.1353 26.7686 21.1353 30.7393 21.1353 38.6807C21.1353 46.6222 21.1353 50.5927 23.3354 53.3058C23.8403 53.9282 24.4199 54.49 25.0619 54.9798C25.3076 55.1671 25.5633 55.3381 25.831 55.4941L36.6607 32.3089C37.1315 31.301 38.3239 30.8153 39.3958 31.1947L46.2778 33.631C46.928 33.8611 47.4269 34.3768 47.6222 35.0205L53.925 55.7768C54.3911 55.5512 54.822 55.2878 55.2259 54.9798C55.8683 54.49 56.4476 53.9282 56.9527 53.3058C59.1526 50.5927 59.1526 46.6222 59.1526 38.6807C59.1526 30.7393 59.1526 26.7686 56.9527 24.0558C56.4476 23.4332 55.8683 22.8712 55.2259 22.3816C52.4284 20.2482 48.3334 20.2482 40.144 20.2482C31.9543 20.2482 27.8595 20.2482 25.0619 22.3816C24.4199 22.8712 23.8403 23.4332 23.3354 24.0558Z" fill="black"/>
</g>
</svg>
