<svg width="192" height="76" viewBox="0 0 192 76" fill="none" xmlns="http://www.w3.org/2000/svg">
<g opacity="0.5">
<path d="M77.315 27.4653H81.7859V48.4109H77.315V27.4653Z" fill="black"/>
<path d="M96.5859 32.2529C98.9016 32.2529 100.759 32.8414 102.157 34.0183C103.556 35.1953 104.255 36.9408 104.255 39.2547V48.4109H99.9563V39.7337C99.9563 38.3371 99.5779 37.2899 98.8212 36.5917C98.0648 35.8735 96.9872 35.5145 95.5887 35.5145C94.0065 35.5145 92.7567 35.9334 91.84 36.7712C90.9228 37.5891 90.464 38.7762 90.464 40.3319V48.4109H86.1652V32.4325H90.2577V34.4971C90.9686 33.759 91.8629 33.2005 92.9405 32.8215C94.0181 32.4424 95.2333 32.2529 96.5859 32.2529Z" fill="black"/>
<path d="M124.849 32.4325L116.973 48.4109H112.537L104.661 32.4325H109.132L114.841 44.2817L120.722 32.4325H124.849Z" fill="black"/>
<path d="M142.577 40.5114C142.577 40.771 142.554 41.1397 142.509 41.6186H128.098C128.351 42.7955 129.004 43.7331 130.059 44.4314C131.136 45.1098 132.466 45.4487 134.048 45.4487C136.066 45.4487 137.728 44.8701 139.035 43.7132L141.339 46.0172C140.514 46.8751 139.47 47.5233 138.209 47.962C136.948 48.4011 135.527 48.6204 133.945 48.6204C131.927 48.6204 130.151 48.2713 128.614 47.5734C127.078 46.8751 125.886 45.9074 125.037 44.6707C124.212 43.4141 123.799 41.9975 123.799 40.4218C123.799 38.8657 124.201 37.4694 125.003 36.2326C125.828 34.9759 126.963 33.9984 128.408 33.3002C129.852 32.602 131.48 32.2529 133.291 32.2529C135.08 32.2529 136.673 32.602 138.072 33.3002C139.493 33.9785 140.594 34.946 141.373 36.2027C142.176 37.4395 142.577 38.8759 142.577 40.5114ZM133.291 35.2452C131.916 35.2452 130.746 35.6042 129.783 36.3224C128.843 37.0206 128.27 37.9582 128.064 39.1351H138.485C138.301 37.9782 137.739 37.0405 136.8 36.3224C135.859 35.6042 134.69 35.2452 133.291 35.2452Z" fill="black"/>
<path d="M149.08 34.7664C150.318 33.0908 152.496 32.5522 155.614 32.5522V35.5444C155.247 35.4846 154.915 35.4547 154.617 35.4547C152.943 35.4547 151.636 36.1528 150.696 37.0106C149.756 37.8484 149.286 39.0651 149.286 40.6611V48.4109H144.987V32.4325H149.08V34.7664Z" fill="black"/>
<path d="M170.118 47.5432C169.613 47.9022 168.994 48.1716 168.26 48.351C167.55 48.5309 166.793 48.6204 165.99 48.6204C163.973 48.6204 162.414 48.1618 161.313 47.2441C160.213 46.3265 159.663 44.9897 159.663 43.2346V35.5444H156.636V32.5521H159.663V28.9016H163.962V32.5521H168.88V35.5444H163.962V43.1447C163.962 43.9227 164.179 44.5209 164.615 44.9401C165.05 45.3389 165.681 45.5387 166.506 45.5387C167.469 45.5387 168.272 45.3189 168.914 44.8802L170.118 47.5432Z" fill="black"/>
<path fill-rule="evenodd" clip-rule="evenodd" d="M66.0718 38C66.0718 48.5975 56.1981 57.1881 44.0177 57.1881C31.8376 57.1881 21.9637 48.5975 21.9637 38C21.9637 27.4027 31.8376 18.8119 44.0177 18.8119C56.1981 18.8119 66.0718 27.4027 66.0718 38ZM59.1408 38C59.1408 45.2667 52.3702 51.1574 44.0182 51.1574C43.4391 51.1574 42.8675 51.1292 42.3054 51.0743C49.9057 50.3794 55.8292 44.7862 55.8292 37.9891C55.8292 31.2263 49.9645 25.6551 42.419 24.9151C42.9445 24.8671 43.4781 24.8425 44.0182 24.8425C52.3702 24.8425 59.1408 30.7333 59.1408 38ZM39.1343 47.2679C44.1185 46.5018 47.9096 42.6439 47.9096 38C47.9096 33.356 44.1185 29.498 39.1343 28.7322C39.7374 28.6414 40.3577 28.5941 40.9907 28.5941C46.9613 28.5941 51.8015 32.8053 51.8015 38C51.8015 43.1947 46.9613 47.4059 40.9907 47.4059C40.3577 47.4059 39.7374 47.3585 39.1343 47.2679Z" fill="black"/>
</g>
</svg>
