<svg width="192" height="76" viewBox="0 0 192 76" fill="none" xmlns="http://www.w3.org/2000/svg">
<g opacity="0.5">
<path fill-rule="evenodd" clip-rule="evenodd" d="M48.4883 24.7171H31.3624V17.4961H55.7536V41.7381H48.4883V24.7171Z" fill="black"/>
<path fill-rule="evenodd" clip-rule="evenodd" d="M35.1107 39.0857C34.0013 38.3489 32.6969 37.9556 31.3626 37.9556V30.7346C34.1339 30.7346 36.843 31.5514 39.1472 33.0816C41.4515 34.6119 43.2474 36.7868 44.3079 39.3315C45.3685 41.8764 45.6461 44.6764 45.1055 47.3777C44.5648 50.079 43.2303 52.5606 41.2705 54.5081C39.3109 56.456 36.8142 57.7823 34.0962 58.3196C31.3781 58.857 28.5608 58.5811 26.0004 57.527C23.4401 56.4729 21.2517 54.6882 19.7121 52.3978C18.1724 50.1075 17.3506 47.4153 17.3506 44.6607H24.6161C24.6161 45.987 25.0118 47.2835 25.7531 48.3859C26.4944 49.4888 27.548 50.3483 28.7808 50.8555C30.0136 51.3632 31.3701 51.4962 32.6788 51.2372C33.9874 50.9786 35.1896 50.3401 36.1331 49.402C37.0766 48.4644 37.7191 47.2695 37.9795 45.9688C38.2397 44.6681 38.1062 43.32 37.5956 42.0949C37.0849 40.8697 36.2202 39.8224 35.1107 39.0857Z" fill="black"/>
<path d="M67.1709 52.9302V22.634H78.4495C80.8881 22.634 82.9058 23.038 84.5024 23.8459C86.0991 24.6538 87.2894 25.7647 88.0731 27.1785C88.8569 28.5923 89.2488 30.1792 89.2488 31.9393C89.2488 33.6128 88.8715 35.1564 88.1168 36.5702C87.3617 37.9552 86.186 39.0805 84.5893 39.9461C82.9926 40.7828 80.9459 41.2012 78.4495 41.2012H72.7447V52.9302H67.1709ZM72.7447 36.7001H78.1008C80.0461 36.7001 81.4396 36.2817 82.2816 35.4449C83.1522 34.5793 83.5877 33.4108 83.5877 31.9393C83.5877 30.4389 83.1522 29.2703 82.2816 28.4336C81.4396 27.568 80.0461 27.1352 78.1008 27.1352H72.7447V36.7001Z" fill="black"/>
<path d="M100.703 53.4495C98.5255 53.4495 96.5951 52.9877 94.9112 52.0645C93.2272 51.1414 91.9065 49.8428 90.9486 48.1691C89.9906 46.4959 89.5115 44.5628 89.5115 42.37C89.5115 40.1481 89.9761 38.1716 90.9049 36.4404C91.8629 34.7092 93.1695 33.3675 94.8243 32.4154C96.5078 31.4344 98.4819 30.9438 100.746 30.9438C102.866 30.9438 104.738 31.4055 106.364 32.3288C107.99 33.2521 109.253 34.5217 110.152 36.1375C111.082 37.7244 111.546 39.4989 111.546 41.4609C111.546 41.7781 111.531 42.1102 111.503 42.4563C111.503 42.8025 111.488 43.1634 111.459 43.5385H95.0417C95.158 45.2117 95.7386 46.5248 96.7838 47.4769C97.8577 48.4289 99.1497 48.9052 100.66 48.9052C101.792 48.9052 102.735 48.6598 103.49 48.1691C104.274 47.6499 104.854 46.9862 105.232 46.1783H110.893C110.486 47.5347 109.804 48.7751 108.846 49.9006C107.917 50.9968 106.756 51.8626 105.362 52.4974C103.998 53.1323 102.445 53.4495 100.703 53.4495ZM100.746 35.445C99.382 35.445 98.1772 35.8345 97.132 36.6135C96.0869 37.3637 95.4194 38.5179 95.1289 40.0759H105.885C105.798 38.6621 105.275 37.5368 104.317 36.7001C103.359 35.8634 102.169 35.445 100.746 35.445Z" fill="black"/>
<path d="M114.057 52.9303V31.4632H118.977L119.413 35.0987C120.081 33.8292 121.039 32.8193 122.287 32.0691C123.564 31.319 125.059 30.9438 126.772 30.9438C129.443 30.9438 131.519 31.7806 132.999 33.4541C134.48 35.1276 135.22 37.5801 135.22 40.8117V52.9303H129.646V41.3312C129.646 39.4845 129.269 38.0707 128.514 37.0896C127.759 36.1086 126.583 35.6181 124.987 35.6181C123.419 35.6181 122.127 36.1663 121.111 37.2628C120.124 38.3592 119.631 39.8884 119.631 41.8504V52.9303H114.057Z" fill="black"/>
<path d="M147.997 52.9303C145.732 52.9303 143.918 52.3818 142.553 51.2856C141.189 50.1889 140.507 48.2414 140.507 45.4427V36.0942H136.805V31.4632H140.507L141.16 25.707H146.08V31.4632H151.916V36.0942H146.08V45.486C146.08 46.5248 146.298 47.246 146.734 47.65C147.198 48.025 147.982 48.2125 149.085 48.2125H151.785V52.9303H147.997Z" fill="black"/>
<path d="M161.971 53.4495C160.113 53.4495 158.588 53.1608 157.398 52.5837C156.208 51.9778 155.323 51.1843 154.742 50.2034C154.161 49.2224 153.871 48.1406 153.871 46.9577C153.871 44.9668 154.655 43.351 156.222 42.1102C157.79 40.8694 160.142 40.2491 163.277 40.2491H168.764V39.7297C168.764 38.2582 168.343 37.1762 167.501 36.4837C166.659 35.7912 165.614 35.445 164.366 35.445C163.233 35.445 162.246 35.7191 161.404 36.2673C160.563 36.7867 160.04 37.5657 159.837 38.6044H154.393C154.538 37.0464 155.061 35.6903 155.961 34.5361C156.89 33.382 158.08 32.5019 159.532 31.896C160.983 31.2612 162.609 30.9438 164.409 30.9438C167.486 30.9438 169.91 31.7085 171.681 33.2377C173.452 34.7669 174.338 36.931 174.338 39.7297V52.9303H169.591L169.068 49.4677C168.43 50.6218 167.53 51.5738 166.369 52.3243C165.236 53.0744 163.771 53.4495 161.971 53.4495ZM163.233 49.1216C164.83 49.1216 166.064 48.602 166.935 47.5636C167.835 46.5248 168.401 45.2406 168.633 43.7116H163.887C162.406 43.7116 161.346 43.9854 160.708 44.5339C160.069 45.0531 159.75 45.7024 159.75 46.4814C159.75 47.3183 160.069 47.9676 160.708 48.4289C161.346 48.8907 162.188 49.1216 163.233 49.1216Z" fill="black"/>
</g>
</svg>
