<svg width="192" height="76" viewBox="0 0 192 76" fill="none" xmlns="http://www.w3.org/2000/svg">
<g opacity="0.5">
<path d="M64.9768 29.4685C66.4281 29.4685 67.6843 29.7151 68.7454 30.2083C69.8221 30.7015 70.649 31.4016 71.2262 32.3085C71.8037 33.2154 72.0925 34.2893 72.0925 35.5304C72.0925 36.7554 71.8037 37.8294 71.2262 38.7522C70.649 39.6591 69.8221 40.3591 68.7454 40.8525C67.6843 41.3296 66.4281 41.5684 64.9768 41.5684H61.6765V46.1745H57.8849V29.4685H64.9768ZM64.7664 38.4181C65.9052 38.4181 66.7715 38.1715 67.3643 37.6783C67.9575 37.1691 68.2537 36.4531 68.2537 35.5304C68.2537 34.5916 67.9575 33.8757 67.3643 33.3825C66.7715 32.8733 65.9052 32.6188 64.7664 32.6188H61.6765V38.4181H64.7664Z" fill="black"/>
<path d="M76.8593 35.0292C77.296 34.4087 77.8814 33.9393 78.6146 33.6211C79.3635 33.3029 80.2217 33.1438 81.1891 33.1438V36.5804C80.7836 36.5486 80.5104 36.5327 80.3699 36.5327C79.3245 36.5327 78.5054 36.835 77.9126 37.4396C77.3194 38.0283 77.0228 38.9192 77.0228 40.1124V46.1745H73.3717V33.3347H76.8593V35.0292Z" fill="black"/>
<path d="M88.0675 46.3651C86.7415 46.3651 85.5477 46.087 84.4866 45.5299C83.4412 44.9573 82.6221 44.1695 82.0289 43.1672C81.4361 42.1648 81.1395 41.0272 81.1395 39.7545C81.1395 38.4817 81.4361 37.3441 82.0289 36.3418C82.6221 35.3394 83.4412 34.5598 84.4866 34.003C85.5477 33.4302 86.7415 33.1438 88.0675 33.1438C89.394 33.1438 90.5799 33.4302 91.6254 34.003C92.6708 34.5598 93.49 35.3394 94.0831 36.3418C94.6759 37.3441 94.9725 38.4817 94.9725 39.7545C94.9725 41.0272 94.6759 42.1648 94.0831 43.1672C93.49 44.1695 92.6708 44.9573 91.6254 45.5299C90.5799 46.087 89.394 46.3651 88.0675 46.3651ZM88.0675 43.3104C89.0041 43.3104 89.7686 42.9925 90.3614 42.3558C90.9702 41.7037 91.2742 40.8366 91.2742 39.7545C91.2742 38.6727 90.9702 37.8135 90.3614 37.1771C89.7686 36.5247 89.0041 36.1986 88.0675 36.1986C87.1313 36.1986 86.359 36.5247 85.7506 37.1771C85.1419 37.8135 84.8375 38.6727 84.8375 39.7545C84.8375 40.8366 85.1419 41.7037 85.7506 42.3558C86.359 42.9925 87.1313 43.3104 88.0675 43.3104Z" fill="black"/>
<path d="M111.527 29.4685V46.1745H108.414L100.245 36.0315V46.1745H96.5003V29.4685H99.6367L107.782 39.6114V29.4685H111.527Z" fill="black"/>
<path d="M119.055 33.1438C121.005 33.1438 122.503 33.6211 123.548 34.5757C124.594 35.5144 125.117 36.9384 125.117 38.8477V46.1745H121.7V44.5754C121.013 45.7687 119.733 46.3651 117.861 46.3651C116.894 46.3651 116.051 46.1984 115.333 45.8642C114.631 45.5299 114.093 45.0688 113.718 44.4799C113.344 43.8914 113.156 43.2229 113.156 42.4752C113.156 41.2819 113.593 40.3432 114.467 39.6591C115.356 38.9749 116.722 38.6329 118.563 38.6329H121.465C121.465 37.8214 121.224 37.2009 120.74 36.7713C120.256 36.3259 119.531 36.1031 118.563 36.1031C117.892 36.1031 117.229 36.2145 116.574 36.4372C115.934 36.6441 115.388 36.9305 114.935 37.2964L113.625 34.695C114.311 34.2018 115.13 33.82 116.082 33.5495C117.049 33.279 118.041 33.1438 119.055 33.1438ZM118.774 43.8595C119.398 43.8595 119.952 43.7163 120.436 43.4298C120.919 43.1274 121.262 42.6901 121.465 42.1171V40.8048H118.961C117.463 40.8048 116.714 41.3058 116.714 42.3081C116.714 42.7856 116.894 43.1672 117.252 43.4537C117.627 43.7242 118.134 43.8595 118.774 43.8595Z" fill="black"/>
<path d="M135.373 45.5539C135.014 45.8244 134.569 46.0313 134.039 46.1746C133.524 46.3015 132.978 46.3652 132.4 46.3652C130.903 46.3652 129.74 45.9756 128.913 45.1961C128.101 44.4162 127.696 43.2707 127.696 41.7594V36.485H125.753V33.6211H127.696V30.4948H131.347V33.6211H134.484V36.485H131.347V41.7117C131.347 42.2524 131.48 42.6742 131.745 42.9766C132.026 43.2627 132.416 43.406 132.916 43.406C133.493 43.406 133.984 43.2468 134.39 42.9289L135.373 45.5539Z" fill="black"/>
<path d="M148.939 33.3347V46.1745H145.474V44.647C144.991 45.2037 144.413 45.6334 143.742 45.9358C143.071 46.2223 142.346 46.3651 141.566 46.3651C139.911 46.3651 138.601 45.8801 137.633 44.9096C136.666 43.9391 136.182 42.4991 136.182 40.5899V33.3347H139.833V40.0408C139.833 42.1091 140.684 43.1433 142.385 43.1433C143.259 43.1433 143.961 42.8572 144.491 42.2842C145.022 41.6957 145.287 40.8287 145.287 39.6829V33.3347H148.939Z" fill="black"/>
<path d="M154.638 35.0292C155.075 34.4087 155.66 33.9393 156.394 33.6211C157.143 33.3029 158.001 33.1438 158.969 33.1438V36.5804C158.563 36.5486 158.29 36.5327 158.149 36.5327C157.104 36.5327 156.284 36.835 155.692 37.4396C155.099 38.0283 154.802 38.9192 154.802 40.1124V46.1745H151.151V33.3347H154.638V35.0292Z" fill="black"/>
<path d="M172.19 39.8025C172.19 39.8498 172.167 40.1841 172.12 40.8048H162.594C162.765 41.6002 163.171 42.2285 163.811 42.6901C164.45 43.1512 165.246 43.382 166.198 43.382C166.853 43.382 167.431 43.2865 167.93 43.0955C168.445 42.889 168.921 42.5707 169.358 42.141L171.301 44.2889C170.115 45.6732 168.382 46.3651 166.104 46.3651C164.684 46.3651 163.428 46.087 162.336 45.5299C161.244 44.9573 160.401 44.1695 159.808 43.1672C159.215 42.1648 158.919 41.0272 158.919 39.7545C158.919 38.4976 159.207 37.368 159.785 36.3656C160.378 35.3474 161.181 34.5598 162.196 34.003C163.225 33.4302 164.372 33.1438 165.636 33.1438C166.869 33.1438 167.985 33.4143 168.983 33.9552C169.982 34.4962 170.762 35.2758 171.324 36.2941C171.901 37.2964 172.19 38.4658 172.19 39.8025ZM165.66 35.9599C164.833 35.9599 164.138 36.1986 163.577 36.6759C163.015 37.1532 162.672 37.8055 162.547 38.6329H168.749C168.624 37.8214 168.281 37.1771 167.719 36.6998C167.157 36.2065 166.471 35.9599 165.66 35.9599Z" fill="black"/>
<path fill-rule="evenodd" clip-rule="evenodd" d="M37.0907 20.1649C36.5344 19.8368 35.8485 19.8368 35.2921 20.1649C31.3406 22.4957 28.6754 26.8565 28.6754 31.8543C28.6754 32.5665 28.7296 33.2659 28.8338 33.9483C26.1136 33.0064 23.1682 33.3491 20.7625 34.7626C20.2056 35.0898 19.8626 35.6955 19.8632 36.3508C19.866 39.8081 21.6274 43.1776 24.782 45.0346C26.3296 45.9458 28.0188 46.3787 29.685 46.3795C29.4315 47.1121 29.2936 47.8999 29.2936 48.7208C29.2936 52.6052 32.3817 55.7538 36.1912 55.7538C40.0008 55.7538 43.0888 52.6052 43.0888 48.7208C43.0888 47.8979 42.9503 47.1085 42.6958 46.3748C44.2626 46.3242 45.8408 45.8905 47.2941 45.0346C50.4488 43.1776 52.21 39.8081 52.2127 36.3509C52.2135 35.6956 51.8704 35.0899 51.3136 34.7627C49.0025 33.4049 46.1936 33.0352 43.5649 33.8431C43.6589 33.1941 43.7073 32.53 43.7073 31.8543C43.7073 26.8565 41.0424 22.4957 37.0907 20.1649ZM32.2674 31.8543C32.2674 28.6089 33.8085 25.7288 36.1914 23.936C38.5744 25.7288 40.1155 28.6089 40.1155 31.8543C40.1155 35.0996 38.5744 37.9797 36.1914 39.7724C33.8085 37.9797 32.2674 35.0996 32.2674 31.8543ZM43.2745 37.9361C44.9331 36.9597 46.8496 36.8461 48.5237 37.4639C48.2115 39.2511 47.1567 40.8864 45.4982 41.8629C43.8396 42.8394 41.9231 42.9528 40.249 42.3352C40.5612 40.5478 41.616 38.9125 43.2745 37.9361ZM23.5524 37.4638C25.2265 36.846 27.1429 36.9596 28.8015 37.936C30.4601 38.9123 31.5148 40.5478 31.8271 42.3348C30.153 42.9528 28.2366 42.8394 26.578 41.8629C24.9194 40.8864 23.8647 39.251 23.5524 37.4638ZM32.8855 48.7208C32.8855 46.8594 34.3655 45.3501 36.1912 45.3501C38.0169 45.3501 39.497 46.8594 39.497 48.7208C39.497 50.5822 38.0169 52.0915 36.1912 52.0915C34.3655 52.0915 32.8855 50.5822 32.8855 48.7208Z" fill="black"/>
</g>
</svg>
