<svg width="107" height="106" viewBox="0 0 107 106" fill="none" xmlns="http://www.w3.org/2000/svg">
<g filter="url(#filter0_dd_154_143)">
<circle cx="53.3333" cy="52" r="50" fill="white"/>
</g>
<g clip-path="url(#clip0_154_143)">
<path d="M72.6506 43.5786L58.5881 56.9055L53.3333 76.9741C56.3698 78.9596 59.9892 80.1249 63.8802 80.1249C74.5421 80.1249 83.3333 71.4508 83.3333 60.789C83.3333 53.286 78.9117 46.7828 72.6506 43.5786Z" fill="#25D9F8"/>
<path d="M51.5942 56.9058L34.016 43.5789C27.7549 46.7829 23.3333 53.2861 23.3333 60.7891C23.3333 71.451 32.1246 80.1251 42.7865 80.1251C46.6774 80.1251 50.2969 78.9598 53.3333 76.9743L51.5942 56.9058Z" fill="#FF641A"/>
<path d="M72.6693 43.2109C72.6693 43.3514 72.6693 43.457 72.6341 43.5624L53.3333 51.6483L34.0326 43.5624C33.9974 43.457 33.9974 43.3514 33.9974 43.2109C33.9974 32.5585 42.6809 23.875 53.3333 23.875C63.9858 23.875 72.6693 32.5585 72.6693 43.2109Z" fill="#FFDA2D"/>
<path d="M72.6693 43.2109C72.6693 43.3514 72.6693 43.457 72.6341 43.5624L53.3333 51.6483V23.875C63.9858 23.875 72.6693 32.5585 72.6693 43.2109Z" fill="#FDBF00"/>
<path d="M63.8802 41.4531C59.9892 41.4531 56.3698 42.6184 53.3333 44.6039L62.1038 60.4212C68.2613 57.2702 72.5114 50.9252 72.6506 43.5787C70.0145 42.2297 67.039 41.4531 63.8802 41.4531Z" fill="#9CDD05"/>
<path d="M42.7864 41.4531C39.6276 41.4531 36.6521 42.2297 34.016 43.5787C34.1552 50.9252 38.4054 57.2702 44.5628 60.4212L53.3333 44.6039C50.2968 42.6184 46.6774 41.4531 42.7864 41.4531Z" fill="#FF9100"/>
<path d="M62.1224 60.7891C62.1224 67.5742 58.6068 73.5156 53.3333 76.9608C48.0599 73.5156 44.5443 67.5742 44.5443 60.7891C44.5443 60.6483 44.5443 60.543 44.5794 60.4374H62.0873C62.1224 60.543 62.1224 60.6483 62.1224 60.7891Z" fill="#979FEF"/>
<path d="M62.1224 60.7891C62.1224 67.5742 58.6068 73.5156 53.3333 76.9608V60.4374H62.0873C62.1224 60.543 62.1224 60.6483 62.1224 60.7891Z" fill="#737EE6"/>
<path d="M62.0874 60.4374C59.4506 61.7733 56.4976 62.5469 53.3335 62.5469C50.1693 62.5469 47.2163 61.7733 44.5795 60.4374C44.6849 53.793 48.1303 47.9922 53.3335 44.6171C58.5365 47.9922 61.982 53.793 62.0874 60.4374Z" fill="#47568C"/>
<path d="M62.0873 60.4374C59.4505 61.7733 56.4975 62.5469 53.3333 62.5469V44.6171C58.5364 47.9922 61.9819 53.793 62.0873 60.4374Z" fill="#2C3B73"/>
</g>
<defs>
<filter id="filter0_dd_154_143" x="0.333344" y="0" width="106" height="106" filterUnits="userSpaceOnUse" color-interpolation-filters="sRGB">
<feFlood flood-opacity="0" result="BackgroundImageFix"/>
<feColorMatrix in="SourceAlpha" type="matrix" values="0 0 0 0 0 0 0 0 0 0 0 0 0 0 0 0 0 0 127 0" result="hardAlpha"/>
<feOffset dy="1"/>
<feGaussianBlur stdDeviation="1"/>
<feColorMatrix type="matrix" values="0 0 0 0 0.0627451 0 0 0 0 0.0941176 0 0 0 0 0.156863 0 0 0 0.06 0"/>
<feBlend mode="normal" in2="BackgroundImageFix" result="effect1_dropShadow_154_143"/>
<feColorMatrix in="SourceAlpha" type="matrix" values="0 0 0 0 0 0 0 0 0 0 0 0 0 0 0 0 0 0 127 0" result="hardAlpha"/>
<feOffset dy="1"/>
<feGaussianBlur stdDeviation="1.5"/>
<feColorMatrix type="matrix" values="0 0 0 0 0.0627451 0 0 0 0 0.0941176 0 0 0 0 0.156863 0 0 0 0.1 0"/>
<feBlend mode="normal" in2="effect1_dropShadow_154_143" result="effect2_dropShadow_154_143"/>
<feBlend mode="normal" in="SourceGraphic" in2="effect2_dropShadow_154_143" result="shape"/>
</filter>
<clipPath id="clip0_154_143">
<rect width="60" height="60" fill="white" transform="translate(23.3333 22)"/>
</clipPath>
</defs>
</svg>
