<svg width="190" height="74" viewBox="0 0 190 74" fill="none" xmlns="http://www.w3.org/2000/svg">
<path fill-rule="evenodd" clip-rule="evenodd" d="M26.6139 28.8946C29.0933 25.6036 33.0636 23.4715 37.5385 23.4715C42.0396 23.4715 46.0301 25.6288 48.5064 28.9528C48.4011 29.0597 48.3051 29.1706 48.2183 29.2813C47.7645 29.8609 47.4233 30.6076 47.1499 31.3658C46.5993 32.8907 46.1792 34.8826 45.7904 36.7479L45.7559 36.9156C45.3678 38.7774 45.0072 40.5089 44.5712 41.7943C44.3753 42.3718 44.1895 42.78 44.0248 43.0415C43.8529 42.7779 43.6578 42.3647 43.4514 41.7789C42.9851 40.4567 42.5928 38.6581 42.177 36.7377L42.1635 36.6748C41.764 34.8302 41.3401 32.873 40.8117 31.3749C40.5462 30.6223 40.2204 29.8832 39.7944 29.3089C39.3762 28.7453 38.6801 28.1092 37.6621 28.1092C36.6505 28.1092 35.9513 28.7384 35.5271 29.2957C35.0928 29.8662 34.7542 30.6023 34.4752 31.3553C33.9135 32.8715 33.4543 34.8548 33.0269 36.7226L32.9828 36.9156C32.5595 38.7658 32.1639 40.4956 31.7148 41.7835C31.5433 42.2753 31.3816 42.6495 31.2351 42.9168C31.092 42.6507 30.9343 42.2791 30.7675 41.7914C30.3367 40.531 29.9592 38.8496 29.5539 37.0437L29.4829 36.7276C29.0629 34.8587 28.6072 32.8718 28.0375 31.3508C27.7545 30.5951 27.4083 29.8553 26.9602 29.282C26.8588 29.1523 26.7435 29.0206 26.6139 28.8946ZM25.1133 31.4215C25.2314 31.6517 25.3563 31.9368 25.4855 32.2817C25.9786 33.5982 26.3964 35.3946 26.8266 37.309L26.9103 37.6819C27.302 39.4287 27.7095 41.2457 28.1894 42.6495C28.4447 43.3961 28.753 44.1274 29.1494 44.6957C29.5243 45.2332 30.1969 45.9275 31.2311 45.9275C32.2624 45.9275 32.9365 45.2366 33.314 44.7015C33.7139 44.1345 34.0272 43.404 34.2876 42.6569C34.7868 41.2254 35.2119 39.3658 35.6187 37.5861L35.6809 37.314C36.1192 35.3985 36.5411 33.5985 37.0306 32.2772C37.2574 31.665 37.4697 31.2386 37.6546 30.974C37.8298 31.2363 38.0299 31.656 38.2421 32.2576C38.7086 33.5799 39.1005 35.3785 39.5164 37.2988L39.53 37.3618C39.9294 39.2063 40.3533 41.1636 40.8817 42.6615C41.1472 43.4144 41.473 44.1536 41.8991 44.7277C42.3173 45.2914 43.0133 45.9275 44.0311 45.9275C45.0544 45.9275 45.7478 45.2856 46.1611 44.7169C46.5807 44.1399 46.8963 43.3982 47.1511 42.6466C47.6411 41.2028 48.0308 39.3296 48.4019 37.5475L48.4555 37.2887C48.8553 35.3707 49.239 33.5792 49.713 32.2667C49.8158 31.9812 49.9169 31.7377 50.0134 31.5332C50.7397 33.1758 51.1424 34.9896 51.1424 36.8962C51.1424 44.3103 45.0519 50.3209 37.5385 50.3209C30.0252 50.3209 23.9344 44.3103 23.9344 36.8962C23.9344 34.9463 24.3557 33.0934 25.1133 31.4215ZM37.5385 20.7866C28.5225 20.7866 21.2136 27.9991 21.2136 36.8962C21.2136 45.7932 28.5225 53.0057 37.5385 53.0057C46.5546 53.0057 53.8631 45.7932 53.8631 36.8962C53.8631 27.9991 46.5546 20.7866 37.5385 20.7866ZM37.8475 30.751L37.8494 30.7493C37.8494 30.7493 37.8462 30.7508 37.8399 30.7558C37.8434 30.7538 37.8475 30.751 37.8475 30.751ZM37.4734 30.7511C37.4671 30.7473 37.464 30.7443 37.464 30.7443C37.464 30.7443 37.4671 30.7459 37.4734 30.7511ZM43.8243 43.2963C43.8243 43.2963 43.8272 43.2934 43.8331 43.2897C43.8272 43.2947 43.8243 43.2963 43.8243 43.2963ZM44.2198 43.2855C44.2262 43.2893 44.2295 43.2922 44.2295 43.2922C44.2295 43.2922 44.2262 43.2905 44.2198 43.2855ZM30.9523 43.3205C30.9523 43.3205 30.9562 43.3163 30.964 43.3109C30.9563 43.318 30.9523 43.3205 30.9523 43.3205ZM31.5033 43.3134C31.5111 43.3188 31.515 43.323 31.515 43.323C31.515 43.323 31.511 43.3209 31.5033 43.3134Z" fill="#FF0559"/>
<path d="M62.8773 46.4334L58.9185 33.0706H62.3861L64.734 42.6885L67.4639 33.0706H71.3406L74.0709 42.6885L76.4461 33.0706H79.9133L75.9275 46.4334H72.2965L69.4022 36.4382L66.5084 46.4334H62.8773Z" fill="#242A31"/>
<path d="M85.0012 46.7569C83.8364 46.7569 82.8809 46.5769 82.1348 46.2177C81.3887 45.8406 80.8334 45.3467 80.4695 44.736C80.1055 44.1253 79.9235 43.4518 79.9235 42.7156C79.9235 41.4762 80.4147 40.4704 81.3975 39.6981C82.3804 38.9258 83.8549 38.5396 85.8206 38.5396H89.2604V38.2163C89.2604 37.3004 88.9963 36.6268 88.4688 36.1958C87.941 35.7647 87.2854 35.5492 86.5031 35.5492C85.7932 35.5492 85.1744 35.7198 84.6465 36.0611C84.1186 36.3844 83.7909 36.8693 83.6636 37.5159H80.2508C80.3422 36.546 80.6696 35.7018 81.2337 34.9834C81.8163 34.265 82.5624 33.7172 83.4724 33.34C84.3828 32.9449 85.4019 32.7473 86.5301 32.7473C88.4596 32.7473 89.9791 33.2232 91.0897 34.1752C92.1997 35.1271 92.755 36.4742 92.755 38.2163V46.4334H89.779L89.4517 44.2783C89.051 44.9967 88.4869 45.5891 87.759 46.0564C87.0491 46.5232 86.1299 46.7569 85.0012 46.7569ZM85.7932 44.0625C86.7942 44.0625 87.5677 43.7391 88.1137 43.0926C88.6778 42.4462 89.0329 41.6467 89.1787 40.6949H86.2027C85.2742 40.6949 84.6103 40.8656 84.2096 41.2068C83.8094 41.5301 83.6089 41.9344 83.6089 42.4192C83.6089 42.9401 83.8094 43.3442 84.2096 43.6314C84.6103 43.9187 85.1377 44.0625 85.7932 44.0625Z" fill="#242A31"/>
<path d="M98.2561 46.4334L93.2875 33.0706H96.9455L100.386 43.1737L103.826 33.0706H107.484L102.488 46.4334H98.2561Z" fill="#242A31"/>
<path d="M114.509 46.7569C113.144 46.7569 111.934 46.4692 110.878 45.8947C109.823 45.3197 108.994 44.5115 108.394 43.4697C107.793 42.4283 107.493 41.2248 107.493 39.8598C107.493 38.4768 107.784 37.2465 108.366 36.1688C108.967 35.0912 109.786 34.256 110.823 33.6633C111.879 33.0526 113.117 32.7473 114.536 32.7473C115.865 32.7473 117.039 33.0347 118.058 33.6094C119.077 34.1842 119.869 34.9744 120.433 35.9802C121.016 36.9681 121.307 38.0727 121.307 39.294C121.307 39.4916 121.298 39.6981 121.28 39.9136C121.28 40.1292 121.271 40.3537 121.252 40.5872H110.96C111.033 41.6289 111.397 42.4462 112.052 43.039C112.725 43.6314 113.535 43.9278 114.482 43.9278C115.191 43.9278 115.783 43.7753 116.256 43.4697C116.748 43.1467 117.112 42.7334 117.348 42.2304H120.898C120.643 43.0748 120.215 43.8472 119.614 44.5477C119.032 45.2299 118.304 45.7687 117.43 46.1641C116.575 46.559 115.601 46.7569 114.509 46.7569ZM114.536 35.5492C113.681 35.5492 112.926 35.7917 112.27 36.2766C111.615 36.7436 111.196 37.462 111.014 38.4319H117.758C117.703 37.5518 117.376 36.8513 116.775 36.3305C116.174 35.8096 115.428 35.5492 114.536 35.5492Z" fill="#242A31"/>
<path d="M123.154 46.4333V27.0356H126.649V46.4333H123.154Z" fill="#242A31"/>
<path d="M135.707 46.7569C134.342 46.7569 133.131 46.4692 132.076 45.8947C131.02 45.3197 130.192 44.5115 129.591 43.4697C128.991 42.4283 128.691 41.2248 128.691 39.8598C128.691 38.4768 128.982 37.2465 129.564 36.1688C130.165 35.0912 130.984 34.256 132.021 33.6633C133.077 33.0526 134.314 32.7473 135.734 32.7473C137.063 32.7473 138.237 33.0347 139.256 33.6094C140.275 34.1842 141.067 34.9744 141.631 35.9802C142.214 36.9681 142.505 38.0727 142.505 39.294C142.505 39.4916 142.496 39.6981 142.478 39.9136C142.478 40.1292 142.468 40.3537 142.45 40.5872H132.158C132.231 41.6289 132.595 42.4462 133.25 43.039C133.923 43.6314 134.733 43.9278 135.68 43.9278C136.389 43.9278 136.981 43.7753 137.454 43.4697C137.945 43.1467 138.309 42.7334 138.546 42.2304H142.096C141.841 43.0748 141.413 43.8472 140.812 44.5477C140.23 45.2299 139.502 45.7687 138.628 46.1641C137.773 46.559 136.799 46.7569 135.707 46.7569ZM135.734 35.5492C134.879 35.5492 134.124 35.7917 133.468 36.2766C132.813 36.7436 132.394 37.462 132.212 38.4319H138.956C138.901 37.5518 138.574 36.8513 137.973 36.3305C137.372 35.8096 136.626 35.5492 135.734 35.5492Z" fill="#242A31"/>
<path d="M149.949 46.7569C148.748 46.7569 147.692 46.5681 146.782 46.1911C145.872 45.7957 145.144 45.2569 144.598 44.5743C144.052 43.8921 143.724 43.1018 143.615 42.2038H147.137C147.246 42.7243 147.537 43.1737 148.01 43.5508C148.502 43.91 149.13 44.0896 149.894 44.0896C150.659 44.0896 151.214 43.937 151.559 43.6314C151.923 43.3263 152.105 42.9758 152.105 42.5809C152.105 42.0059 151.851 41.6197 151.341 41.4224C150.831 41.2068 150.122 41.0003 149.212 40.8027C148.629 40.677 148.038 40.5243 147.437 40.3447C146.836 40.1651 146.281 39.9406 145.772 39.6712C145.28 39.3838 144.88 39.0246 144.57 38.5935C144.261 38.1445 144.106 37.5967 144.106 36.9501C144.106 35.7647 144.579 34.7679 145.526 33.9597C146.49 33.1514 147.837 32.7473 149.567 32.7473C151.168 32.7473 152.442 33.1155 153.389 33.8519C154.353 34.5883 154.927 35.603 155.109 36.8962H151.805C151.605 35.9084 150.849 35.4145 149.539 35.4145C148.884 35.4145 148.374 35.5402 148.01 35.7917C147.665 36.0431 147.492 36.3574 147.492 36.7346C147.492 37.1297 147.756 37.444 148.283 37.6775C148.811 37.911 149.512 38.1265 150.386 38.3241C151.332 38.5396 152.196 38.7821 152.979 39.0515C153.78 39.303 154.417 39.6891 154.89 40.21C155.364 40.7129 155.6 41.4403 155.6 42.3921C155.618 43.2186 155.4 43.9636 154.945 44.6283C154.49 45.2927 153.835 45.8136 152.979 46.1911C152.124 46.5681 151.114 46.7569 149.949 46.7569Z" fill="#242A31"/>
<path d="M163.2 46.7569C161.999 46.7569 160.943 46.5681 160.034 46.1911C159.124 45.7957 158.396 45.2569 157.85 44.5743C157.304 43.8921 156.976 43.1018 156.867 42.2038H160.389C160.498 42.7243 160.789 43.1737 161.262 43.5508C161.754 43.91 162.381 44.0896 163.146 44.0896C163.91 44.0896 164.465 43.937 164.811 43.6314C165.175 43.3263 165.357 42.9758 165.357 42.5809C165.357 42.0059 165.102 41.6197 164.593 41.4224C164.083 41.2068 163.373 41.0003 162.463 40.8027C161.881 40.677 161.289 40.5243 160.689 40.3447C160.088 40.1651 159.533 39.9406 159.023 39.6712C158.532 39.3838 158.131 39.0246 157.822 38.5935C157.513 38.1445 157.358 37.5967 157.358 36.9501C157.358 35.7647 157.831 34.7679 158.778 33.9597C159.742 33.1514 161.089 32.7473 162.818 32.7473C164.42 32.7473 165.694 33.1155 166.641 33.8519C167.605 34.5883 168.178 35.603 168.36 36.8962H165.057C164.857 35.9084 164.101 35.4145 162.791 35.4145C162.136 35.4145 161.626 35.5402 161.262 35.7917C160.916 36.0431 160.743 36.3574 160.743 36.7346C160.743 37.1297 161.007 37.444 161.535 37.6775C162.063 37.911 162.763 38.1265 163.637 38.3241C164.584 38.5396 165.448 38.7821 166.231 39.0515C167.032 39.303 167.669 39.6891 168.142 40.21C168.615 40.7129 168.852 41.4403 168.852 42.3921C168.87 43.2186 168.652 43.9636 168.197 44.6283C167.741 45.2927 167.086 45.8136 166.231 46.1911C165.375 46.5681 164.365 46.7569 163.2 46.7569Z" fill="#242A31"/>
</svg>
