<svg width="190" height="75" viewBox="0 0 190 75" fill="none" xmlns="http://www.w3.org/2000/svg">
<path fill-rule="evenodd" clip-rule="evenodd" d="M26.6139 29.7832C29.0933 26.4922 33.0636 24.3601 37.5385 24.3601C42.0396 24.3601 46.0301 26.5173 48.5064 29.8413C48.4011 29.9483 48.3051 30.0591 48.2183 30.1698C47.7645 30.7495 47.4233 31.4961 47.1499 32.2543C46.5993 33.7793 46.1792 35.7712 45.7904 37.6364L45.7559 37.8041C45.3678 39.6659 45.0072 41.3975 44.5712 42.6829C44.3753 43.2603 44.1895 43.6686 44.0248 43.93C43.8529 43.6665 43.6578 43.2532 43.4514 42.6675C42.9851 41.3452 42.5928 39.5467 42.177 37.6263L42.1635 37.5634C41.764 35.7188 41.3401 33.7616 40.8117 32.2634C40.5462 31.5109 40.2204 30.7717 39.7944 30.1974C39.3762 29.6338 38.6801 28.9978 37.6621 28.9978C36.6505 28.9978 35.9513 29.6269 35.5271 30.1842C35.0928 30.7548 34.7542 31.4909 34.4752 32.2438C33.9135 33.76 33.4543 35.7434 33.0269 37.6112L32.9828 37.8041C32.5595 39.6544 32.1639 41.3842 31.7148 42.672C31.5433 43.1639 31.3816 43.538 31.2351 43.8053C31.092 43.5393 30.9343 43.1676 30.7675 42.6799C30.3367 41.4195 29.9592 39.7382 29.5539 37.9322L29.4829 37.6162C29.0629 35.7472 28.6072 33.7603 28.0375 32.2394C27.7545 31.4836 27.4083 30.7438 26.9602 30.1706C26.8588 30.0408 26.7435 29.9091 26.6139 29.7832ZM25.1133 32.3101C25.2314 32.5402 25.3563 32.8254 25.4855 33.1702C25.9786 34.4867 26.3964 36.2831 26.8266 38.1975L26.9103 38.5705C27.302 40.3173 27.7095 42.1343 28.1894 43.538C28.4447 44.2847 28.753 45.0159 29.1494 45.5842C29.5243 46.1218 30.1969 46.816 31.2311 46.816C32.2624 46.816 32.9365 46.1251 33.314 45.5901C33.7139 45.023 34.0272 44.2926 34.2876 43.5455C34.7868 42.1139 35.2119 40.2543 35.6187 38.4747L35.6809 38.2025C36.1192 36.287 36.5411 34.487 37.0306 33.1658C37.2574 32.5536 37.4697 32.1271 37.6546 31.8626C37.8298 32.1248 38.0299 32.5445 38.2421 33.1462C38.7086 34.4685 39.1005 36.267 39.5164 38.1874L39.53 38.2503C39.9294 40.0949 40.3533 42.0521 40.8817 43.5501C41.1472 44.303 41.473 45.0421 41.8991 45.6163C42.3173 46.18 43.0133 46.816 44.0311 46.816C45.0544 46.816 45.7478 46.1742 46.1611 45.6054C46.5807 45.0284 46.8963 44.2867 47.1511 43.5351C47.6411 42.0914 48.0308 40.2181 48.4019 38.4361L48.4555 38.1773C48.8553 36.2592 49.239 34.4678 49.713 33.1552C49.8158 32.8697 49.9169 32.6263 50.0134 32.4218C50.7397 34.0644 51.1424 35.8781 51.1424 37.7847C51.1424 45.1989 45.0519 51.2095 37.5385 51.2095C30.0252 51.2095 23.9344 45.1989 23.9344 37.7847C23.9344 35.8348 24.3557 33.982 25.1133 32.3101ZM37.5385 21.6752C28.5225 21.6752 21.2136 28.8877 21.2136 37.7847C21.2136 46.6818 28.5225 53.8943 37.5385 53.8943C46.5546 53.8943 53.8631 46.6818 53.8631 37.7847C53.8631 28.8877 46.5546 21.6752 37.5385 21.6752ZM37.8475 31.6395C37.8488 31.6386 37.8494 31.638 37.8494 31.6378C37.8494 31.6375 37.8462 31.6393 37.8399 31.6443C37.8434 31.6423 37.8459 31.6407 37.8475 31.6395ZM37.4734 31.6396C37.4671 31.6358 37.464 31.6332 37.464 31.6329C37.464 31.6325 37.4671 31.6344 37.4734 31.6396ZM43.8243 44.1849C43.8243 44.1849 43.8272 44.182 43.8331 44.1782C43.8272 44.1832 43.8243 44.1853 43.8243 44.1849ZM44.2198 44.1741C44.2262 44.1778 44.2295 44.1803 44.2295 44.1807C44.2295 44.1812 44.2262 44.1791 44.2198 44.1741ZM30.9523 44.209C30.9523 44.2086 30.9562 44.2048 30.964 44.1994C30.9563 44.2065 30.9523 44.2094 30.9523 44.209ZM31.5033 44.2019C31.5111 44.2073 31.515 44.2111 31.515 44.2115C31.515 44.2119 31.511 44.2094 31.5033 44.2019Z" fill="white"/>
<path d="M62.8773 47.322L58.9185 33.9591H62.3861L64.734 43.5771L67.4639 33.9591H71.3406L74.0709 43.5771L76.4461 33.9591H79.9133L75.9275 47.322H72.2965L69.4022 37.3268L66.5084 47.322H62.8773Z" fill="white"/>
<path d="M85.0012 47.6454C83.8364 47.6454 82.8809 47.4654 82.1348 47.1062C81.3887 46.7292 80.8334 46.2353 80.4695 45.6246C80.1055 45.0139 79.9235 44.3404 79.9235 43.6041C79.9235 42.3648 80.4147 41.359 81.3975 40.5867C82.3804 39.8144 83.8549 39.4282 85.8206 39.4282H89.2604V39.1049C89.2604 38.1889 88.9963 37.5154 88.4688 37.0843C87.941 36.6532 87.2854 36.4377 86.5031 36.4377C85.7932 36.4377 85.1744 36.6083 84.6465 36.9496C84.1186 37.2729 83.7909 37.7578 83.6636 38.4044H80.2508C80.3422 37.4346 80.6696 36.5904 81.2337 35.872C81.8163 35.1535 82.5624 34.6057 83.4724 34.2286C84.3828 33.8334 85.4019 33.6359 86.5301 33.6359C88.4596 33.6359 89.9791 34.1118 91.0897 35.0637C92.1997 36.0156 92.755 37.3627 92.755 39.1049V47.322H89.779L89.4517 45.1669C89.051 45.8852 88.4869 46.4776 87.759 46.9449C87.0491 47.4118 86.1299 47.6454 85.0012 47.6454ZM85.7932 44.9511C86.7942 44.9511 87.5677 44.6276 88.1137 43.9812C88.6778 43.3347 89.0329 42.5353 89.1787 41.5835H86.2027C85.2742 41.5835 84.6103 41.7541 84.2096 42.0954C83.8094 42.4187 83.6089 42.823 83.6089 43.3077C83.6089 43.8286 83.8094 44.2327 84.2096 44.52C84.6103 44.8072 85.1377 44.9511 85.7932 44.9511Z" fill="white"/>
<path d="M98.2561 47.322L93.2875 33.9591H96.9455L100.386 44.0622L103.826 33.9591H107.484L102.488 47.322H98.2561Z" fill="white"/>
<path d="M114.509 47.6454C113.144 47.6454 111.934 47.3577 110.878 46.7832C109.823 46.2083 108.994 45.4001 108.394 44.3583C107.793 43.3168 107.493 42.1133 107.493 40.7483C107.493 39.3653 107.784 38.135 108.366 37.0574C108.967 35.9797 109.786 35.1445 110.823 34.5518C111.879 33.9412 113.117 33.6359 114.536 33.6359C115.865 33.6359 117.039 33.9232 118.058 34.498C119.077 35.0727 119.869 35.863 120.433 36.8688C121.016 37.8566 121.307 38.9612 121.307 40.1825C121.307 40.3801 121.298 40.5867 121.28 40.8022C121.28 41.0177 121.271 41.2422 121.252 41.4757H110.96C111.033 42.5174 111.397 43.3347 112.052 43.9276C112.725 44.52 113.535 44.8164 114.482 44.8164C115.191 44.8164 115.783 44.6638 116.256 44.3583C116.748 44.0352 117.112 43.622 117.348 43.119H120.898C120.643 43.9633 120.215 44.7357 119.614 45.4362C119.032 46.1185 118.304 46.6572 117.43 47.0526C116.575 47.4475 115.601 47.6454 114.509 47.6454ZM114.536 36.4377C113.681 36.4377 112.926 36.6802 112.27 37.1651C111.615 37.6321 111.196 38.3505 111.014 39.3204H117.758C117.703 38.4403 117.376 37.7399 116.775 37.219C116.174 36.6982 115.428 36.4377 114.536 36.4377Z" fill="white"/>
<path d="M123.154 47.322V27.9243H126.649V47.322H123.154Z" fill="white"/>
<path d="M135.707 47.6454C134.342 47.6454 133.131 47.3577 132.076 46.7832C131.02 46.2083 130.192 45.4001 129.591 44.3583C128.991 43.3168 128.691 42.1133 128.691 40.7483C128.691 39.3653 128.982 38.135 129.564 37.0574C130.165 35.9797 130.984 35.1445 132.021 34.5518C133.077 33.9412 134.314 33.6359 135.734 33.6359C137.063 33.6359 138.237 33.9232 139.256 34.498C140.275 35.0727 141.067 35.863 141.631 36.8688C142.214 37.8566 142.505 38.9612 142.505 40.1825C142.505 40.3801 142.496 40.5867 142.478 40.8022C142.478 41.0177 142.468 41.2422 142.45 41.4757H132.158C132.231 42.5174 132.595 43.3347 133.25 43.9276C133.923 44.52 134.733 44.8164 135.68 44.8164C136.389 44.8164 136.981 44.6638 137.454 44.3583C137.945 44.0352 138.309 43.622 138.546 43.119H142.096C141.841 43.9633 141.413 44.7357 140.812 45.4362C140.23 46.1185 139.502 46.6572 138.628 47.0526C137.773 47.4475 136.799 47.6454 135.707 47.6454ZM135.734 36.4377C134.879 36.4377 134.124 36.6802 133.468 37.1651C132.813 37.6321 132.394 38.3505 132.212 39.3204H138.956C138.901 38.4403 138.574 37.7399 137.973 37.219C137.372 36.6982 136.626 36.4377 135.734 36.4377Z" fill="white"/>
<path d="M149.949 47.6454C148.748 47.6454 147.692 47.4567 146.782 47.0796C145.872 46.6843 145.144 46.1455 144.598 45.4629C144.052 44.7806 143.724 43.9903 143.615 43.0924H147.137C147.246 43.6129 147.537 44.0623 148.01 44.4393C148.502 44.7985 149.13 44.9781 149.894 44.9781C150.659 44.9781 151.214 44.8255 151.559 44.52C151.923 44.2148 152.105 43.8644 152.105 43.4694C152.105 42.8945 151.851 42.5083 151.341 42.3109C150.831 42.0954 150.122 41.8888 149.212 41.6913C148.629 41.5655 148.038 41.4128 147.437 41.2333C146.836 41.0537 146.281 40.8291 145.772 40.5597C145.28 40.2723 144.88 39.9131 144.57 39.4821C144.261 39.033 144.106 38.4852 144.106 37.8386C144.106 36.6532 144.579 35.6564 145.526 34.8482C146.49 34.04 147.837 33.6359 149.567 33.6359C151.168 33.6359 152.442 34.004 153.389 34.7404C154.353 35.4768 154.927 36.4916 155.109 37.7848H151.805C151.605 36.797 150.849 36.303 149.539 36.303C148.884 36.303 148.374 36.4287 148.01 36.6802C147.665 36.9316 147.492 37.2459 147.492 37.6231C147.492 38.0183 147.756 38.3326 148.283 38.5661C148.811 38.7996 149.512 39.0151 150.386 39.2127C151.332 39.4282 152.196 39.6706 152.979 39.9401C153.78 40.1915 154.417 40.5777 154.89 41.0986C155.364 41.6014 155.6 42.3289 155.6 43.2807C155.618 44.1072 155.4 44.8521 154.945 45.5169C154.49 46.1812 153.835 46.7021 152.979 47.0796C152.124 47.4567 151.114 47.6454 149.949 47.6454Z" fill="white"/>
<path d="M163.2 47.6454C161.999 47.6454 160.943 47.4567 160.034 47.0796C159.124 46.6843 158.396 46.1455 157.85 45.4629C157.304 44.7806 156.976 43.9903 156.867 43.0924H160.389C160.498 43.6129 160.789 44.0623 161.262 44.4393C161.754 44.7985 162.381 44.9781 163.146 44.9781C163.91 44.9781 164.465 44.8255 164.811 44.52C165.175 44.2148 165.357 43.8644 165.357 43.4694C165.357 42.8945 165.102 42.5083 164.593 42.3109C164.083 42.0954 163.373 41.8888 162.463 41.6913C161.881 41.5655 161.289 41.4128 160.689 41.2333C160.088 41.0537 159.533 40.8291 159.023 40.5597C158.532 40.2723 158.131 39.9131 157.822 39.4821C157.513 39.033 157.358 38.4852 157.358 37.8386C157.358 36.6532 157.831 35.6564 158.778 34.8482C159.742 34.04 161.089 33.6359 162.818 33.6359C164.42 33.6359 165.694 34.004 166.641 34.7404C167.605 35.4768 168.178 36.4916 168.36 37.7848H165.057C164.857 36.797 164.101 36.303 162.791 36.303C162.136 36.303 161.626 36.4287 161.262 36.6802C160.916 36.9316 160.743 37.2459 160.743 37.6231C160.743 38.0183 161.007 38.3326 161.535 38.5661C162.063 38.7996 162.763 39.0151 163.637 39.2127C164.584 39.4282 165.448 39.6706 166.231 39.9401C167.032 40.1915 167.669 40.5777 168.142 41.0986C168.615 41.6014 168.852 42.3289 168.852 43.2807C168.87 44.1072 168.652 44.8521 168.197 45.5169C167.741 46.1812 167.086 46.7021 166.231 47.0796C165.375 47.4567 164.365 47.6454 163.2 47.6454Z" fill="white"/>
</svg>
