<svg width="107" height="106" viewBox="0 0 107 106" fill="none" xmlns="http://www.w3.org/2000/svg">
<g filter="url(#filter0_dd_154_162)">
<circle cx="53.6667" cy="52" r="50" fill="white"/>
</g>
<g clip-path="url(#clip0_154_162)">
<path d="M87.6667 27.3906C87.6667 24.4782 85.3057 22.1172 82.3932 22.1172H32.9401C30.0277 22.1172 27.6667 24.4782 27.6667 27.3906V37.9375L28.8386 39.1094H86.4948C86.9524 38.6518 87.2091 38.3951 87.6667 37.9375V27.3906Z" fill="#0052C2"/>
<path d="M87.6667 27.3906V37.9375C87.2085 38.3957 86.953 38.6512 86.4948 39.1094H57.6667V22.1172H82.3932C85.3054 22.1172 87.6667 24.4785 87.6667 27.3906Z" fill="#003481"/>
<path d="M78.7604 29.1484H68.2136C67.2428 29.1484 66.4557 29.9355 66.4557 30.9062C66.4557 31.877 67.2428 32.6641 68.2136 32.6641H78.7604C79.7312 32.6641 80.5182 31.877 80.5182 30.9062C80.5182 29.9355 79.7312 29.1484 78.7604 29.1484Z" fill="#0052C2"/>
<path d="M50.6354 32.6641C51.6063 32.6641 52.3932 31.8771 52.3932 30.9062C52.3932 29.9354 51.6063 29.1484 50.6354 29.1484C49.6646 29.1484 48.8776 29.9354 48.8776 30.9062C48.8776 31.8771 49.6646 32.6641 50.6354 32.6641Z" fill="#F03800"/>
<path d="M43.6042 32.6641C44.575 32.6641 45.362 31.8771 45.362 30.9062C45.362 29.9354 44.575 29.1484 43.6042 29.1484C42.6334 29.1484 41.8464 29.9354 41.8464 30.9062C41.8464 31.8771 42.6334 32.6641 43.6042 32.6641Z" fill="#FDBF00"/>
<path d="M36.5729 32.6641C37.5438 32.6641 38.3307 31.8771 38.3307 30.9062C38.3307 29.9354 37.5438 29.1484 36.5729 29.1484C35.6021 29.1484 34.8151 29.9354 34.8151 30.9062C34.8151 31.8771 35.6021 32.6641 36.5729 32.6641Z" fill="#37D742"/>
<path d="M27.6667 37.9375V76.6094C27.6667 79.5171 30.0324 81.8828 32.9401 81.8828H82.3932C85.301 81.8828 87.6667 79.5171 87.6667 76.6094V37.9375H27.6667Z" fill="#E0F4FF"/>
<path d="M87.6667 37.9375V76.6094C87.6667 79.5168 85.3007 81.8828 82.3932 81.8828H57.6667V37.9375H87.6667Z" fill="#B8E0F5"/>
<path d="M63.6327 45.1109C62.7404 44.7286 61.7069 45.1419 61.3245 46.0341L50.7777 70.6435C50.3952 71.5358 50.8086 72.5693 51.7009 72.9516C52.5935 73.3341 53.6267 72.9205 54.009 72.0284L64.5559 47.4191C64.9384 46.5267 64.5249 45.4933 63.6327 45.1109Z" fill="#FF641A"/>
<path d="M64.5561 47.4192L57.6667 63.4949V54.5676L61.3241 46.034C61.7073 45.1422 62.7397 44.7285 63.6327 45.1106C64.5245 45.4938 64.9382 46.5262 64.5561 47.4192Z" fill="#F03800"/>
<path d="M48.2178 64.6898L41.1446 59.0312L48.2178 53.3726C48.976 52.7661 49.0988 51.66 48.4924 50.9019C47.8858 50.1438 46.7794 50.021 46.0217 50.6275L37.2326 57.6587C36.3539 58.3615 36.3533 59.7006 37.2326 60.404L46.0217 67.4352C46.7798 68.0418 47.8862 67.9187 48.4924 67.1608C49.0988 66.4024 48.976 65.2963 48.2178 64.6898Z" fill="#FF641A"/>
<path d="M78.1006 57.6586L69.3116 50.6274C68.5535 50.0208 67.4472 50.1438 66.8409 50.9018C66.2345 51.6599 66.3573 52.7662 67.1155 53.3725L74.1887 59.0313L67.1155 64.6899C66.3573 65.2963 66.2345 66.4025 66.8409 67.1606C67.4482 67.9195 68.5545 68.0409 69.3116 67.435L78.1006 60.4038C78.9794 59.701 78.98 58.362 78.1006 57.6586Z" fill="#F03800"/>
</g>
<defs>
<filter id="filter0_dd_154_162" x="0.666687" y="0" width="106" height="106" filterUnits="userSpaceOnUse" color-interpolation-filters="sRGB">
<feFlood flood-opacity="0" result="BackgroundImageFix"/>
<feColorMatrix in="SourceAlpha" type="matrix" values="0 0 0 0 0 0 0 0 0 0 0 0 0 0 0 0 0 0 127 0" result="hardAlpha"/>
<feOffset dy="1"/>
<feGaussianBlur stdDeviation="1"/>
<feColorMatrix type="matrix" values="0 0 0 0 0.0627451 0 0 0 0 0.0941176 0 0 0 0 0.156863 0 0 0 0.06 0"/>
<feBlend mode="normal" in2="BackgroundImageFix" result="effect1_dropShadow_154_162"/>
<feColorMatrix in="SourceAlpha" type="matrix" values="0 0 0 0 0 0 0 0 0 0 0 0 0 0 0 0 0 0 127 0" result="hardAlpha"/>
<feOffset dy="1"/>
<feGaussianBlur stdDeviation="1.5"/>
<feColorMatrix type="matrix" values="0 0 0 0 0.0627451 0 0 0 0 0.0941176 0 0 0 0 0.156863 0 0 0 0.1 0"/>
<feBlend mode="normal" in2="effect1_dropShadow_154_162" result="effect2_dropShadow_154_162"/>
<feBlend mode="normal" in="SourceGraphic" in2="effect2_dropShadow_154_162" result="shape"/>
</filter>
<clipPath id="clip0_154_162">
<rect width="60" height="60" fill="white" transform="translate(27.6667 22)"/>
</clipPath>
</defs>
</svg>
